<svg width="45" height="46" viewBox="0 0 45 46" fill="none" xmlns="http://www.w3.org/2000/svg">
<mask id="path-1-inside-1_3232_8072" fill="white">
<path fill-rule="evenodd" clip-rule="evenodd" d="M43.2253 1.96289C40.0063 1.96289 38.2493 2.23104 36.0552 2.78836V14.939C37.9574 14.1777 40.9484 13.9518 43.2253 13.9518V1.96289ZM10.7164 30.4763C11.3746 30.6329 12.0032 30.8938 12.5794 31.2486L13.79 30.7109L15.2168 32.1377L14.6792 33.3478C15.0342 33.9241 15.2951 34.5529 15.4517 35.2113L16.6868 35.6867V37.7044L15.4515 38.1799C15.2948 38.8381 15.0339 39.4668 14.6792 40.0428L15.2169 41.2533L13.7901 42.6802L12.5799 42.1427C12.0037 42.4976 11.3748 42.7586 10.7164 42.9152L10.2409 44.1504H8.22315L7.74767 42.915C7.08945 42.7584 6.46086 42.4974 5.88474 42.1427L4.67413 42.6803L3.24731 41.2535L3.78485 40.0434C3.42995 39.4671 3.169 38.8382 3.01238 38.1799L1.77734 37.7045V35.6868L3.01256 35.2113C3.16918 34.553 3.43013 33.9243 3.78494 33.3482L3.24731 32.1378L4.67413 30.7109L5.88474 31.2486C6.46086 30.8938 7.08954 30.6329 7.74767 30.4763L8.22315 29.2409H10.2409L10.7164 30.4763ZM22.0524 37.6153C22.3254 37.8899 22.3242 38.3338 22.0497 38.6068C21.7751 38.8799 21.3312 38.8786 21.0582 38.6041L19.697 37.2348C19.4239 36.9602 19.4252 36.5163 19.6997 36.2433L21.0691 34.8821C21.3436 34.6091 21.7876 34.6103 22.0606 34.8849C22.3336 35.1594 22.3324 35.6034 22.0578 35.8764L21.8959 36.0373H34.6941L34.6631 18.8522C34.6631 18.4654 34.9767 18.1518 35.3635 18.1518C35.7503 18.1518 36.0639 18.4654 36.0639 18.8522L36.096 36.6772C36.1328 37.0882 35.8097 37.4435 35.3958 37.4435H21.8817L22.0524 37.6153ZM9.93518 26.2362V11.2587H22.7284L22.5576 11.4305C22.2846 11.705 22.2857 12.149 22.5603 12.422C22.8349 12.695 23.2788 12.6938 23.5518 12.4192L24.913 11.0499C25.186 10.7753 25.1848 10.3314 24.9102 10.0584L23.5409 8.69725C23.2663 8.42417 22.8224 8.4254 22.5494 8.69997C22.2764 8.97454 22.2777 9.41848 22.5521 9.69146L22.714 9.85239H9.23205C8.84375 9.85239 8.52893 10.1672 8.52893 10.5555V26.2361C8.52893 26.6244 8.84375 26.9392 9.23205 26.9392C9.62035 26.9393 9.93518 26.6245 9.93518 26.2362ZM9.23205 33.1767C7.28844 33.1767 5.71317 34.752 5.71317 36.6956C5.71317 38.6392 7.28853 40.2145 9.23205 40.2145C11.1758 40.2145 12.751 38.6392 12.751 36.6956C12.751 34.7521 11.1757 33.1767 9.23205 33.1767ZM22.8711 15.3704C20.874 15.3704 19.255 16.9894 19.255 18.9865C19.255 20.9836 20.874 22.6026 22.8711 22.6026C24.8682 22.6026 26.4872 20.9837 26.4872 18.9865C26.4872 16.9895 24.8682 15.3704 22.8711 15.3704ZM15.7603 29.8639H29.9818C29.5978 26.276 26.5608 23.4816 22.8711 23.4816C19.1812 23.4815 16.1443 26.276 15.7603 29.8639ZM33.6298 11.9563C33.9999 12.0716 34.2065 12.4651 34.0912 12.8352C33.9759 13.2053 33.5824 13.412 33.2123 13.2967C31.9802 12.9101 30.6633 12.7517 29.3769 12.6902C28.9901 12.672 28.6913 12.3437 28.7095 11.9568C28.7277 11.57 29.056 11.2712 29.4429 11.2894C30.8616 11.3573 32.2703 11.5298 33.6298 11.9563ZM33.6105 6.56906C33.9836 6.67374 34.2013 7.06107 34.0967 7.43426C33.992 7.80735 33.6047 8.02506 33.2315 7.92038C31.9297 7.55449 30.7326 7.39734 29.3852 7.3447C28.9984 7.33107 28.6959 7.00641 28.7095 6.6196C28.7231 6.23279 29.0478 5.93027 29.4346 5.9439C30.8964 6.00103 32.1981 6.17206 33.6105 6.56906ZM33.6024 3.90123C33.977 4.00134 34.1996 4.3863 34.0995 4.76089C33.9994 5.13557 33.6145 5.35811 33.2398 5.258C31.9142 4.90345 30.753 4.74612 29.3853 4.69787C28.9985 4.68425 28.696 4.35958 28.7096 3.97277C28.7232 3.58597 29.0479 3.28345 29.4347 3.29707C30.9043 3.34901 32.1778 3.52014 33.6024 3.90123ZM33.6188 9.2521C33.9904 9.36126 34.2032 9.75114 34.0939 10.1227C33.9848 10.4943 33.5949 10.7071 33.2233 10.5979C31.9462 10.2227 30.7085 10.066 29.3825 10.0098C28.9957 9.99469 28.6944 9.66879 28.7096 9.28198C28.7247 8.89518 29.0506 8.59389 29.4374 8.60909C30.8876 8.67053 32.2217 8.84174 33.6188 9.2521ZM37.4919 13.2966C37.1218 13.4119 36.7283 13.2052 36.613 12.8351C36.4977 12.465 36.7043 12.0715 37.0744 11.9562C38.4339 11.5298 39.8426 11.3573 41.2612 11.2893C41.6481 11.2711 41.9764 11.57 41.9946 11.9568C42.0128 12.3436 41.714 12.6719 41.3272 12.6901C40.0409 12.7517 38.724 12.9101 37.4919 13.2966ZM37.4645 5.258C37.0898 5.35811 36.7049 5.13548 36.6048 4.76089C36.5047 4.38621 36.7273 4.00134 37.1019 3.90123C38.5264 3.52022 39.7999 3.34901 41.2695 3.29716C41.6563 3.28354 41.981 3.58605 41.9946 3.97286C42.0082 4.35967 41.7057 4.68434 41.3189 4.69796C39.9513 4.74612 38.79 4.90345 37.4645 5.258ZM37.4727 7.92038C37.0996 8.02506 36.7122 7.80735 36.6075 7.43426C36.5028 7.06116 36.7206 6.67374 37.0936 6.56906C38.5061 6.17197 39.8078 6.00103 41.2695 5.94398C41.6563 5.93036 41.981 6.23288 41.9946 6.61969C42.0082 7.00649 41.7057 7.33116 41.3189 7.34479C39.9715 7.39734 38.7745 7.5544 37.4727 7.92038ZM37.4809 10.5979C37.1093 10.707 36.7194 10.4943 36.6102 10.1227C36.5011 9.75114 36.7138 9.36135 37.0854 9.2521C38.4825 8.84165 39.8166 8.67053 41.2668 8.60909C41.6536 8.59398 41.9795 8.89526 41.9946 9.28198C42.0097 9.66879 41.7084 9.99469 41.3217 10.0098C39.9957 10.066 38.758 10.2227 37.4809 10.5979ZM34.649 2.78836C32.455 2.23104 30.6978 1.96289 27.4788 1.96289V13.9518C29.7558 13.9518 32.7468 14.1777 34.649 14.939V2.78836Z"/>
</mask>
<path fill-rule="evenodd" clip-rule="evenodd" d="M43.2253 1.96289C40.0063 1.96289 38.2493 2.23104 36.0552 2.78836V14.939C37.9574 14.1777 40.9484 13.9518 43.2253 13.9518V1.96289ZM10.7164 30.4763C11.3746 30.6329 12.0032 30.8938 12.5794 31.2486L13.79 30.7109L15.2168 32.1377L14.6792 33.3478C15.0342 33.9241 15.2951 34.5529 15.4517 35.2113L16.6868 35.6867V37.7044L15.4515 38.1799C15.2948 38.8381 15.0339 39.4668 14.6792 40.0428L15.2169 41.2533L13.7901 42.6802L12.5799 42.1427C12.0037 42.4976 11.3748 42.7586 10.7164 42.9152L10.2409 44.1504H8.22315L7.74767 42.915C7.08945 42.7584 6.46086 42.4974 5.88474 42.1427L4.67413 42.6803L3.24731 41.2535L3.78485 40.0434C3.42995 39.4671 3.169 38.8382 3.01238 38.1799L1.77734 37.7045V35.6868L3.01256 35.2113C3.16918 34.553 3.43013 33.9243 3.78494 33.3482L3.24731 32.1378L4.67413 30.7109L5.88474 31.2486C6.46086 30.8938 7.08954 30.6329 7.74767 30.4763L8.22315 29.2409H10.2409L10.7164 30.4763ZM22.0524 37.6153C22.3254 37.8899 22.3242 38.3338 22.0497 38.6068C21.7751 38.8799 21.3312 38.8786 21.0582 38.6041L19.697 37.2348C19.4239 36.9602 19.4252 36.5163 19.6997 36.2433L21.0691 34.8821C21.3436 34.6091 21.7876 34.6103 22.0606 34.8849C22.3336 35.1594 22.3324 35.6034 22.0578 35.8764L21.8959 36.0373H34.6941L34.6631 18.8522C34.6631 18.4654 34.9767 18.1518 35.3635 18.1518C35.7503 18.1518 36.0639 18.4654 36.0639 18.8522L36.096 36.6772C36.1328 37.0882 35.8097 37.4435 35.3958 37.4435H21.8817L22.0524 37.6153ZM9.93518 26.2362V11.2587H22.7284L22.5576 11.4305C22.2846 11.705 22.2857 12.149 22.5603 12.422C22.8349 12.695 23.2788 12.6938 23.5518 12.4192L24.913 11.0499C25.186 10.7753 25.1848 10.3314 24.9102 10.0584L23.5409 8.69725C23.2663 8.42417 22.8224 8.4254 22.5494 8.69997C22.2764 8.97454 22.2777 9.41848 22.5521 9.69146L22.714 9.85239H9.23205C8.84375 9.85239 8.52893 10.1672 8.52893 10.5555V26.2361C8.52893 26.6244 8.84375 26.9392 9.23205 26.9392C9.62035 26.9393 9.93518 26.6245 9.93518 26.2362ZM9.23205 33.1767C7.28844 33.1767 5.71317 34.752 5.71317 36.6956C5.71317 38.6392 7.28853 40.2145 9.23205 40.2145C11.1758 40.2145 12.751 38.6392 12.751 36.6956C12.751 34.7521 11.1757 33.1767 9.23205 33.1767ZM22.8711 15.3704C20.874 15.3704 19.255 16.9894 19.255 18.9865C19.255 20.9836 20.874 22.6026 22.8711 22.6026C24.8682 22.6026 26.4872 20.9837 26.4872 18.9865C26.4872 16.9895 24.8682 15.3704 22.8711 15.3704ZM15.7603 29.8639H29.9818C29.5978 26.276 26.5608 23.4816 22.8711 23.4816C19.1812 23.4815 16.1443 26.276 15.7603 29.8639ZM33.6298 11.9563C33.9999 12.0716 34.2065 12.4651 34.0912 12.8352C33.9759 13.2053 33.5824 13.412 33.2123 13.2967C31.9802 12.9101 30.6633 12.7517 29.3769 12.6902C28.9901 12.672 28.6913 12.3437 28.7095 11.9568C28.7277 11.57 29.056 11.2712 29.4429 11.2894C30.8616 11.3573 32.2703 11.5298 33.6298 11.9563ZM33.6105 6.56906C33.9836 6.67374 34.2013 7.06107 34.0967 7.43426C33.992 7.80735 33.6047 8.02506 33.2315 7.92038C31.9297 7.55449 30.7326 7.39734 29.3852 7.3447C28.9984 7.33107 28.6959 7.00641 28.7095 6.6196C28.7231 6.23279 29.0478 5.93027 29.4346 5.9439C30.8964 6.00103 32.1981 6.17206 33.6105 6.56906ZM33.6024 3.90123C33.977 4.00134 34.1996 4.3863 34.0995 4.76089C33.9994 5.13557 33.6145 5.35811 33.2398 5.258C31.9142 4.90345 30.753 4.74612 29.3853 4.69787C28.9985 4.68425 28.696 4.35958 28.7096 3.97277C28.7232 3.58597 29.0479 3.28345 29.4347 3.29707C30.9043 3.34901 32.1778 3.52014 33.6024 3.90123ZM33.6188 9.2521C33.9904 9.36126 34.2032 9.75114 34.0939 10.1227C33.9848 10.4943 33.5949 10.7071 33.2233 10.5979C31.9462 10.2227 30.7085 10.066 29.3825 10.0098C28.9957 9.99469 28.6944 9.66879 28.7096 9.28198C28.7247 8.89518 29.0506 8.59389 29.4374 8.60909C30.8876 8.67053 32.2217 8.84174 33.6188 9.2521ZM37.4919 13.2966C37.1218 13.4119 36.7283 13.2052 36.613 12.8351C36.4977 12.465 36.7043 12.0715 37.0744 11.9562C38.4339 11.5298 39.8426 11.3573 41.2612 11.2893C41.6481 11.2711 41.9764 11.57 41.9946 11.9568C42.0128 12.3436 41.714 12.6719 41.3272 12.6901C40.0409 12.7517 38.724 12.9101 37.4919 13.2966ZM37.4645 5.258C37.0898 5.35811 36.7049 5.13548 36.6048 4.76089C36.5047 4.38621 36.7273 4.00134 37.1019 3.90123C38.5264 3.52022 39.7999 3.34901 41.2695 3.29716C41.6563 3.28354 41.981 3.58605 41.9946 3.97286C42.0082 4.35967 41.7057 4.68434 41.3189 4.69796C39.9513 4.74612 38.79 4.90345 37.4645 5.258ZM37.4727 7.92038C37.0996 8.02506 36.7122 7.80735 36.6075 7.43426C36.5028 7.06116 36.7206 6.67374 37.0936 6.56906C38.5061 6.17197 39.8078 6.00103 41.2695 5.94398C41.6563 5.93036 41.981 6.23288 41.9946 6.61969C42.0082 7.00649 41.7057 7.33116 41.3189 7.34479C39.9715 7.39734 38.7745 7.5544 37.4727 7.92038ZM37.4809 10.5979C37.1093 10.707 36.7194 10.4943 36.6102 10.1227C36.5011 9.75114 36.7138 9.36135 37.0854 9.2521C38.4825 8.84165 39.8166 8.67053 41.2668 8.60909C41.6536 8.59398 41.9795 8.89526 41.9946 9.28198C42.0097 9.66879 41.7084 9.99469 41.3217 10.0098C39.9957 10.066 38.758 10.2227 37.4809 10.5979ZM34.649 2.78836C32.455 2.23104 30.6978 1.96289 27.4788 1.96289V13.9518C29.7558 13.9518 32.7468 14.1777 34.649 14.939V2.78836Z" stroke="white" stroke-width="2" mask="url(#path-1-inside-1_3232_8072)"/>
</svg>
